# xmcd
#
# Track frame offsets:
#	150
#	11778
#	23330
#	37454
#	53483
#	64367
#	75347
#	90965
#	104137
#	116339
#	131018
#	144476
#	158730
#	172855
#	181187
#
# Disc length: 2544 seconds
#
# Revision: 1
# Processed by: cddbd v1.5.2PL0 Copyright (c) Steve Scherf et al.
# Submitted via: audiograbber 1.83.01
#
DISCID=b809ee0f
DTITLE=Ralph Brauner - Grown Up
DYEAR=2011
DGENRE=acoustic blues
TTITLE0=Divin' Duck
TTITLE1=Waitin' for the Postman
TTITLE2=Sugar Daddy Mood
TTITLE3=Love You the Most
TTITLE4=Sloppy Drunk
TTITLE5=Careless Love
TTITLE6=Stranger
TTITLE7=Trick Bag
TTITLE8=My Own Fault
TTITLE9=Goin' Away Baby
TTITLE10=Keep Your Hands Off
TTITLE11=You've Got to Love Her with a Feeling
TTITLE12=Feeling Foolish
TTITLE13=Talking About Blues
TTITLE14=Grown Up Blues
EXTD=
EXTT0=
EXTT1=
EXTT2=
EXTT3=
EXTT4=
EXTT5=
EXTT6=
EXTT7=
EXTT8=
EXTT9=
EXTT10=
EXTT11=
EXTT12=
EXTT13=
EXTT14=
PLAYORDER=
